<mxfile host="app.diagrams.net" modified="2021-10-18T08:15:40.871Z" agent="5.0 (Windows NT 10.0; WOW64) AppleWebKit/537.36 (KHTML, like Gecko) Chrome/94.0.4606.81 Safari/537.36" etag="24bitx0NERR6I12WkmMP" version="15.5.4" type="github" pages="2">
  <diagram id="KpjbOM50suR5ELJcTFT9" name="Conceptual">
    <mxGraphModel dx="1422" dy="914" grid="1" gridSize="10" guides="1" tooltips="1" connect="1" arrows="1" fold="1" page="1" pageScale="1" pageWidth="827" pageHeight="1169" math="0" shadow="0">
      <root>
        <mxCell id="WaWMJwZ1MYTigDFI-wAt-0" />
        <mxCell id="WaWMJwZ1MYTigDFI-wAt-1" parent="WaWMJwZ1MYTigDFI-wAt-0" />
        <mxCell id="WaWMJwZ1MYTigDFI-wAt-14" style="edgeStyle=orthogonalEdgeStyle;rounded=0;orthogonalLoop=1;jettySize=auto;html=1;exitX=1;exitY=0.5;exitDx=0;exitDy=0;entryX=0;entryY=0.5;entryDx=0;entryDy=0;endArrow=none;endFill=0;" parent="WaWMJwZ1MYTigDFI-wAt-1" source="WaWMJwZ1MYTigDFI-wAt-2" target="WaWMJwZ1MYTigDFI-wAt-12" edge="1">
          <mxGeometry relative="1" as="geometry" />
        </mxCell>
        <mxCell id="WaWMJwZ1MYTigDFI-wAt-21" style="edgeStyle=orthogonalEdgeStyle;rounded=0;orthogonalLoop=1;jettySize=auto;html=1;exitX=0.5;exitY=1;exitDx=0;exitDy=0;entryX=0.5;entryY=0;entryDx=0;entryDy=0;endArrow=none;endFill=0;" parent="WaWMJwZ1MYTigDFI-wAt-1" source="WaWMJwZ1MYTigDFI-wAt-2" target="WaWMJwZ1MYTigDFI-wAt-5" edge="1">
          <mxGeometry relative="1" as="geometry" />
        </mxCell>
        <mxCell id="WaWMJwZ1MYTigDFI-wAt-2" value="Player" style="whiteSpace=wrap;html=1;aspect=fixed;" parent="WaWMJwZ1MYTigDFI-wAt-1" vertex="1">
          <mxGeometry x="120" y="80" width="80" height="80" as="geometry" />
        </mxCell>
        <mxCell id="WaWMJwZ1MYTigDFI-wAt-4" value="Game details" style="whiteSpace=wrap;html=1;aspect=fixed;" parent="WaWMJwZ1MYTigDFI-wAt-1" vertex="1">
          <mxGeometry x="410" y="520" width="80" height="80" as="geometry" />
        </mxCell>
        <mxCell id="WaWMJwZ1MYTigDFI-wAt-5" value="earns" style="rhombus;whiteSpace=wrap;html=1;" parent="WaWMJwZ1MYTigDFI-wAt-1" vertex="1">
          <mxGeometry x="120" y="210" width="80" height="80" as="geometry" />
        </mxCell>
        <mxCell id="WaWMJwZ1MYTigDFI-wAt-6" value="Salary" style="whiteSpace=wrap;html=1;aspect=fixed;" parent="WaWMJwZ1MYTigDFI-wAt-1" vertex="1">
          <mxGeometry x="120" y="360" width="80" height="80" as="geometry" />
        </mxCell>
        <mxCell id="WaWMJwZ1MYTigDFI-wAt-27" style="edgeStyle=orthogonalEdgeStyle;rounded=0;orthogonalLoop=1;jettySize=auto;html=1;exitX=1;exitY=0.5;exitDx=0;exitDy=0;entryX=0.5;entryY=0;entryDx=0;entryDy=0;endArrow=none;endFill=0;" parent="WaWMJwZ1MYTigDFI-wAt-1" source="WaWMJwZ1MYTigDFI-wAt-9" target="WaWMJwZ1MYTigDFI-wAt-10" edge="1">
          <mxGeometry relative="1" as="geometry" />
        </mxCell>
        <mxCell id="LQ8EkmnR6dQI8lVl232f-8" style="edgeStyle=orthogonalEdgeStyle;rounded=0;orthogonalLoop=1;jettySize=auto;html=1;exitX=0.5;exitY=1;exitDx=0;exitDy=0;entryX=0.5;entryY=0;entryDx=0;entryDy=0;endArrow=none;endFill=0;" edge="1" parent="WaWMJwZ1MYTigDFI-wAt-1" source="WaWMJwZ1MYTigDFI-wAt-9" target="LQ8EkmnR6dQI8lVl232f-5">
          <mxGeometry relative="1" as="geometry" />
        </mxCell>
        <mxCell id="WaWMJwZ1MYTigDFI-wAt-9" value="Team" style="whiteSpace=wrap;html=1;aspect=fixed;" parent="WaWMJwZ1MYTigDFI-wAt-1" vertex="1">
          <mxGeometry x="410" y="80" width="80" height="80" as="geometry" />
        </mxCell>
        <mxCell id="WaWMJwZ1MYTigDFI-wAt-10" value="has" style="rhombus;whiteSpace=wrap;html=1;" parent="WaWMJwZ1MYTigDFI-wAt-1" vertex="1">
          <mxGeometry x="560" y="210" width="80" height="80" as="geometry" />
        </mxCell>
        <mxCell id="WaWMJwZ1MYTigDFI-wAt-11" value="Budget" style="whiteSpace=wrap;html=1;aspect=fixed;" parent="WaWMJwZ1MYTigDFI-wAt-1" vertex="1">
          <mxGeometry x="560" y="360" width="80" height="80" as="geometry" />
        </mxCell>
        <mxCell id="WaWMJwZ1MYTigDFI-wAt-15" style="edgeStyle=orthogonalEdgeStyle;rounded=0;orthogonalLoop=1;jettySize=auto;html=1;exitX=1;exitY=0.5;exitDx=0;exitDy=0;entryX=0;entryY=0.5;entryDx=0;entryDy=0;endArrow=none;endFill=0;" parent="WaWMJwZ1MYTigDFI-wAt-1" source="WaWMJwZ1MYTigDFI-wAt-12" target="WaWMJwZ1MYTigDFI-wAt-9" edge="1">
          <mxGeometry relative="1" as="geometry" />
        </mxCell>
        <mxCell id="WaWMJwZ1MYTigDFI-wAt-12" value="plays&lt;br&gt;for" style="rhombus;whiteSpace=wrap;html=1;" parent="WaWMJwZ1MYTigDFI-wAt-1" vertex="1">
          <mxGeometry x="270" y="80" width="80" height="80" as="geometry" />
        </mxCell>
        <mxCell id="WaWMJwZ1MYTigDFI-wAt-23" value="" style="endArrow=none;html=1;rounded=0;exitX=0.5;exitY=0;exitDx=0;exitDy=0;entryX=0.5;entryY=1;entryDx=0;entryDy=0;" parent="WaWMJwZ1MYTigDFI-wAt-1" source="WaWMJwZ1MYTigDFI-wAt-11" target="WaWMJwZ1MYTigDFI-wAt-10" edge="1">
          <mxGeometry width="50" height="50" relative="1" as="geometry">
            <mxPoint x="630" y="350" as="sourcePoint" />
            <mxPoint x="590" y="120" as="targetPoint" />
            <Array as="points" />
          </mxGeometry>
        </mxCell>
        <mxCell id="WaWMJwZ1MYTigDFI-wAt-25" value="" style="endArrow=none;html=1;rounded=0;entryX=0.5;entryY=0;entryDx=0;entryDy=0;exitX=0.5;exitY=1;exitDx=0;exitDy=0;" parent="WaWMJwZ1MYTigDFI-wAt-1" edge="1" target="WaWMJwZ1MYTigDFI-wAt-6" source="WaWMJwZ1MYTigDFI-wAt-5">
          <mxGeometry width="50" height="50" relative="1" as="geometry">
            <mxPoint x="120" y="399.5" as="sourcePoint" />
            <mxPoint x="190" y="399.5" as="targetPoint" />
          </mxGeometry>
        </mxCell>
        <mxCell id="LQ8EkmnR6dQI8lVl232f-5" value="plays" style="rhombus;whiteSpace=wrap;html=1;" vertex="1" parent="WaWMJwZ1MYTigDFI-wAt-1">
          <mxGeometry x="410" y="210" width="80" height="80" as="geometry" />
        </mxCell>
        <mxCell id="LQ8EkmnR6dQI8lVl232f-10" style="edgeStyle=orthogonalEdgeStyle;rounded=0;orthogonalLoop=1;jettySize=auto;html=1;exitX=0.5;exitY=0;exitDx=0;exitDy=0;entryX=0.5;entryY=1;entryDx=0;entryDy=0;endArrow=none;endFill=0;" edge="1" parent="WaWMJwZ1MYTigDFI-wAt-1" source="LQ8EkmnR6dQI8lVl232f-6" target="LQ8EkmnR6dQI8lVl232f-5">
          <mxGeometry relative="1" as="geometry" />
        </mxCell>
        <mxCell id="LQ8EkmnR6dQI8lVl232f-27" style="edgeStyle=orthogonalEdgeStyle;rounded=0;orthogonalLoop=1;jettySize=auto;html=1;exitX=0.5;exitY=1;exitDx=0;exitDy=0;entryX=0.5;entryY=0;entryDx=0;entryDy=0;endArrow=none;endFill=0;" edge="1" parent="WaWMJwZ1MYTigDFI-wAt-1" source="LQ8EkmnR6dQI8lVl232f-6" target="WaWMJwZ1MYTigDFI-wAt-4">
          <mxGeometry relative="1" as="geometry" />
        </mxCell>
        <mxCell id="LQ8EkmnR6dQI8lVl232f-6" value="Games" style="whiteSpace=wrap;html=1;aspect=fixed;" vertex="1" parent="WaWMJwZ1MYTigDFI-wAt-1">
          <mxGeometry x="410" y="360" width="80" height="80" as="geometry" />
        </mxCell>
      </root>
    </mxGraphModel>
  </diagram>
  <diagram id="o72FL4JSvxtYNjWn5hsY" name="Logical">
    <mxGraphModel dx="3076" dy="914" grid="1" gridSize="10" guides="1" tooltips="1" connect="1" arrows="1" fold="1" page="1" pageScale="1" pageWidth="1654" pageHeight="1169" math="0" shadow="0">
      <root>
        <mxCell id="SCCgKxzARnN3cMDTixyp-0" />
        <mxCell id="SCCgKxzARnN3cMDTixyp-1" parent="SCCgKxzARnN3cMDTixyp-0" />
        <mxCell id="jkipOq33ZPvJP4FlrsBJ-0" value="players" style="swimlane;fontStyle=0;childLayout=stackLayout;horizontal=1;startSize=26;horizontalStack=0;resizeParent=1;resizeParentMax=0;resizeLast=0;collapsible=1;marginBottom=0;align=center;fontSize=14;" vertex="1" parent="SCCgKxzARnN3cMDTixyp-1">
          <mxGeometry x="-1340" y="126" width="160" height="116" as="geometry" />
        </mxCell>
        <mxCell id="jkipOq33ZPvJP4FlrsBJ-1" value="player_ID" style="text;strokeColor=none;fillColor=none;spacingLeft=4;spacingRight=4;overflow=hidden;rotatable=0;points=[[0,0.5],[1,0.5]];portConstraint=eastwest;fontSize=12;" vertex="1" parent="jkipOq33ZPvJP4FlrsBJ-0">
          <mxGeometry y="26" width="160" height="30" as="geometry" />
        </mxCell>
        <mxCell id="jkipOq33ZPvJP4FlrsBJ-2" value="player_first_name" style="text;strokeColor=none;fillColor=none;spacingLeft=4;spacingRight=4;overflow=hidden;rotatable=0;points=[[0,0.5],[1,0.5]];portConstraint=eastwest;fontSize=12;" vertex="1" parent="jkipOq33ZPvJP4FlrsBJ-0">
          <mxGeometry y="56" width="160" height="30" as="geometry" />
        </mxCell>
        <mxCell id="jkipOq33ZPvJP4FlrsBJ-3" value="player_last_name" style="text;strokeColor=none;fillColor=none;spacingLeft=4;spacingRight=4;overflow=hidden;rotatable=0;points=[[0,0.5],[1,0.5]];portConstraint=eastwest;fontSize=12;" vertex="1" parent="jkipOq33ZPvJP4FlrsBJ-0">
          <mxGeometry y="86" width="160" height="30" as="geometry" />
        </mxCell>
        <mxCell id="jkipOq33ZPvJP4FlrsBJ-4" value="teams" style="swimlane;fontStyle=0;childLayout=stackLayout;horizontal=1;startSize=26;horizontalStack=0;resizeParent=1;resizeParentMax=0;resizeLast=0;collapsible=1;marginBottom=0;align=center;fontSize=14;" vertex="1" parent="SCCgKxzARnN3cMDTixyp-1">
          <mxGeometry x="-850" y="126" width="160" height="176" as="geometry" />
        </mxCell>
        <mxCell id="jkipOq33ZPvJP4FlrsBJ-5" value="team_ID" style="text;strokeColor=none;fillColor=none;spacingLeft=4;spacingRight=4;overflow=hidden;rotatable=0;points=[[0,0.5],[1,0.5]];portConstraint=eastwest;fontSize=12;" vertex="1" parent="jkipOq33ZPvJP4FlrsBJ-4">
          <mxGeometry y="26" width="160" height="30" as="geometry" />
        </mxCell>
        <mxCell id="jkipOq33ZPvJP4FlrsBJ-6" value="team_abbreviation" style="text;strokeColor=none;fillColor=none;spacingLeft=4;spacingRight=4;overflow=hidden;rotatable=0;points=[[0,0.5],[1,0.5]];portConstraint=eastwest;fontSize=12;" vertex="1" parent="jkipOq33ZPvJP4FlrsBJ-4">
          <mxGeometry y="56" width="160" height="30" as="geometry" />
        </mxCell>
        <mxCell id="jkipOq33ZPvJP4FlrsBJ-7" value="team_name&#xa;" style="text;strokeColor=none;fillColor=none;spacingLeft=4;spacingRight=4;overflow=hidden;rotatable=0;points=[[0,0.5],[1,0.5]];portConstraint=eastwest;fontSize=12;" vertex="1" parent="jkipOq33ZPvJP4FlrsBJ-4">
          <mxGeometry y="86" width="160" height="30" as="geometry" />
        </mxCell>
        <mxCell id="5-Y15HctPKVcctrwR9Oy-0" value="city" style="text;strokeColor=none;fillColor=none;spacingLeft=4;spacingRight=4;overflow=hidden;rotatable=0;points=[[0,0.5],[1,0.5]];portConstraint=eastwest;fontSize=12;" vertex="1" parent="jkipOq33ZPvJP4FlrsBJ-4">
          <mxGeometry y="116" width="160" height="30" as="geometry" />
        </mxCell>
        <mxCell id="5-Y15HctPKVcctrwR9Oy-1" value="arena" style="text;strokeColor=none;fillColor=none;spacingLeft=4;spacingRight=4;overflow=hidden;rotatable=0;points=[[0,0.5],[1,0.5]];portConstraint=eastwest;fontSize=12;" vertex="1" parent="jkipOq33ZPvJP4FlrsBJ-4">
          <mxGeometry y="146" width="160" height="30" as="geometry" />
        </mxCell>
        <mxCell id="jkipOq33ZPvJP4FlrsBJ-8" value="contracts" style="swimlane;fontStyle=0;childLayout=stackLayout;horizontal=1;startSize=26;horizontalStack=0;resizeParent=1;resizeParentMax=0;resizeLast=0;collapsible=1;marginBottom=0;align=center;fontSize=14;" vertex="1" parent="SCCgKxzARnN3cMDTixyp-1">
          <mxGeometry x="-1090" y="236" width="160" height="116" as="geometry" />
        </mxCell>
        <mxCell id="jkipOq33ZPvJP4FlrsBJ-9" value="player_ID" style="text;strokeColor=none;fillColor=none;spacingLeft=4;spacingRight=4;overflow=hidden;rotatable=0;points=[[0,0.5],[1,0.5]];portConstraint=eastwest;fontSize=12;" vertex="1" parent="jkipOq33ZPvJP4FlrsBJ-8">
          <mxGeometry y="26" width="160" height="30" as="geometry" />
        </mxCell>
        <mxCell id="jkipOq33ZPvJP4FlrsBJ-10" value="team_ID" style="text;strokeColor=none;fillColor=none;spacingLeft=4;spacingRight=4;overflow=hidden;rotatable=0;points=[[0,0.5],[1,0.5]];portConstraint=eastwest;fontSize=12;" vertex="1" parent="jkipOq33ZPvJP4FlrsBJ-8">
          <mxGeometry y="56" width="160" height="30" as="geometry" />
        </mxCell>
        <mxCell id="jkipOq33ZPvJP4FlrsBJ-11" value="year" style="text;strokeColor=none;fillColor=none;spacingLeft=4;spacingRight=4;overflow=hidden;rotatable=0;points=[[0,0.5],[1,0.5]];portConstraint=eastwest;fontSize=12;" vertex="1" parent="jkipOq33ZPvJP4FlrsBJ-8">
          <mxGeometry y="86" width="160" height="30" as="geometry" />
        </mxCell>
        <mxCell id="jkipOq33ZPvJP4FlrsBJ-12" value="budget" style="swimlane;fontStyle=0;childLayout=stackLayout;horizontal=1;startSize=26;horizontalStack=0;resizeParent=1;resizeParentMax=0;resizeLast=0;collapsible=1;marginBottom=0;align=center;fontSize=14;" vertex="1" parent="SCCgKxzARnN3cMDTixyp-1">
          <mxGeometry x="-600" y="120" width="160" height="116" as="geometry" />
        </mxCell>
        <mxCell id="jkipOq33ZPvJP4FlrsBJ-13" value="team_ID" style="text;strokeColor=none;fillColor=none;spacingLeft=4;spacingRight=4;overflow=hidden;rotatable=0;points=[[0,0.5],[1,0.5]];portConstraint=eastwest;fontSize=12;" vertex="1" parent="jkipOq33ZPvJP4FlrsBJ-12">
          <mxGeometry y="26" width="160" height="30" as="geometry" />
        </mxCell>
        <mxCell id="jkipOq33ZPvJP4FlrsBJ-14" value="year" style="text;strokeColor=none;fillColor=none;spacingLeft=4;spacingRight=4;overflow=hidden;rotatable=0;points=[[0,0.5],[1,0.5]];portConstraint=eastwest;fontSize=12;" vertex="1" parent="jkipOq33ZPvJP4FlrsBJ-12">
          <mxGeometry y="56" width="160" height="30" as="geometry" />
        </mxCell>
        <mxCell id="jkipOq33ZPvJP4FlrsBJ-15" value="budget" style="text;strokeColor=none;fillColor=none;spacingLeft=4;spacingRight=4;overflow=hidden;rotatable=0;points=[[0,0.5],[1,0.5]];portConstraint=eastwest;fontSize=12;" vertex="1" parent="jkipOq33ZPvJP4FlrsBJ-12">
          <mxGeometry y="86" width="160" height="30" as="geometry" />
        </mxCell>
        <mxCell id="jkipOq33ZPvJP4FlrsBJ-16" value="salary" style="swimlane;fontStyle=0;childLayout=stackLayout;horizontal=1;startSize=26;horizontalStack=0;resizeParent=1;resizeParentMax=0;resizeLast=0;collapsible=1;marginBottom=0;align=center;fontSize=14;" vertex="1" parent="SCCgKxzARnN3cMDTixyp-1">
          <mxGeometry x="-1600" y="316" width="160" height="116" as="geometry" />
        </mxCell>
        <mxCell id="jkipOq33ZPvJP4FlrsBJ-17" value="player_ID" style="text;strokeColor=none;fillColor=none;spacingLeft=4;spacingRight=4;overflow=hidden;rotatable=0;points=[[0,0.5],[1,0.5]];portConstraint=eastwest;fontSize=12;" vertex="1" parent="jkipOq33ZPvJP4FlrsBJ-16">
          <mxGeometry y="26" width="160" height="30" as="geometry" />
        </mxCell>
        <mxCell id="jkipOq33ZPvJP4FlrsBJ-18" value="year" style="text;strokeColor=none;fillColor=none;spacingLeft=4;spacingRight=4;overflow=hidden;rotatable=0;points=[[0,0.5],[1,0.5]];portConstraint=eastwest;fontSize=12;" vertex="1" parent="jkipOq33ZPvJP4FlrsBJ-16">
          <mxGeometry y="56" width="160" height="30" as="geometry" />
        </mxCell>
        <mxCell id="jkipOq33ZPvJP4FlrsBJ-19" value="salary" style="text;strokeColor=none;fillColor=none;spacingLeft=4;spacingRight=4;overflow=hidden;rotatable=0;points=[[0,0.5],[1,0.5]];portConstraint=eastwest;fontSize=12;" vertex="1" parent="jkipOq33ZPvJP4FlrsBJ-16">
          <mxGeometry y="86" width="160" height="30" as="geometry" />
        </mxCell>
        <mxCell id="jkipOq33ZPvJP4FlrsBJ-20" value="games" style="swimlane;fontStyle=0;childLayout=stackLayout;horizontal=1;startSize=26;horizontalStack=0;resizeParent=1;resizeParentMax=0;resizeLast=0;collapsible=1;marginBottom=0;align=center;fontSize=14;" vertex="1" parent="SCCgKxzARnN3cMDTixyp-1">
          <mxGeometry x="-600" y="346" width="160" height="210" as="geometry" />
        </mxCell>
        <mxCell id="jkipOq33ZPvJP4FlrsBJ-21" value="game_ID" style="text;strokeColor=none;fillColor=none;spacingLeft=4;spacingRight=4;overflow=hidden;rotatable=0;points=[[0,0.5],[1,0.5]];portConstraint=eastwest;fontSize=12;" vertex="1" parent="jkipOq33ZPvJP4FlrsBJ-20">
          <mxGeometry y="26" width="160" height="30" as="geometry" />
        </mxCell>
        <mxCell id="jkipOq33ZPvJP4FlrsBJ-25" value="date_played" style="text;strokeColor=none;fillColor=none;spacingLeft=4;spacingRight=4;overflow=hidden;rotatable=0;points=[[0,0.5],[1,0.5]];portConstraint=eastwest;fontSize=12;" vertex="1" parent="jkipOq33ZPvJP4FlrsBJ-20">
          <mxGeometry y="56" width="160" height="34" as="geometry" />
        </mxCell>
        <mxCell id="jkipOq33ZPvJP4FlrsBJ-24" value="home_team" style="text;strokeColor=none;fillColor=none;spacingLeft=4;spacingRight=4;overflow=hidden;rotatable=0;points=[[0,0.5],[1,0.5]];portConstraint=eastwest;fontSize=12;" vertex="1" parent="jkipOq33ZPvJP4FlrsBJ-20">
          <mxGeometry y="90" width="160" height="30" as="geometry" />
        </mxCell>
        <mxCell id="jkipOq33ZPvJP4FlrsBJ-23" value="home_points" style="text;strokeColor=none;fillColor=none;spacingLeft=4;spacingRight=4;overflow=hidden;rotatable=0;points=[[0,0.5],[1,0.5]];portConstraint=eastwest;fontSize=12;" vertex="1" parent="jkipOq33ZPvJP4FlrsBJ-20">
          <mxGeometry y="120" width="160" height="30" as="geometry" />
        </mxCell>
        <mxCell id="jkipOq33ZPvJP4FlrsBJ-22" value="away_team" style="text;strokeColor=none;fillColor=none;spacingLeft=4;spacingRight=4;overflow=hidden;rotatable=0;points=[[0,0.5],[1,0.5]];portConstraint=eastwest;fontSize=12;" vertex="1" parent="jkipOq33ZPvJP4FlrsBJ-20">
          <mxGeometry y="150" width="160" height="30" as="geometry" />
        </mxCell>
        <mxCell id="5-Y15HctPKVcctrwR9Oy-7" value="away_points" style="text;strokeColor=none;fillColor=none;spacingLeft=4;spacingRight=4;overflow=hidden;rotatable=0;points=[[0,0.5],[1,0.5]];portConstraint=eastwest;fontSize=12;" vertex="1" parent="jkipOq33ZPvJP4FlrsBJ-20">
          <mxGeometry y="180" width="160" height="30" as="geometry" />
        </mxCell>
        <mxCell id="jkipOq33ZPvJP4FlrsBJ-26" value="game_details" style="swimlane;fontStyle=0;childLayout=stackLayout;horizontal=1;startSize=26;horizontalStack=0;resizeParent=1;resizeParentMax=0;resizeLast=0;collapsible=1;marginBottom=0;align=center;fontSize=14;" vertex="1" parent="SCCgKxzARnN3cMDTixyp-1">
          <mxGeometry x="-320" y="446" width="160" height="240" as="geometry" />
        </mxCell>
        <mxCell id="jkipOq33ZPvJP4FlrsBJ-27" value="game_ID" style="text;strokeColor=none;fillColor=none;spacingLeft=4;spacingRight=4;overflow=hidden;rotatable=0;points=[[0,0.5],[1,0.5]];portConstraint=eastwest;fontSize=12;" vertex="1" parent="jkipOq33ZPvJP4FlrsBJ-26">
          <mxGeometry y="26" width="160" height="30" as="geometry" />
        </mxCell>
        <mxCell id="jkipOq33ZPvJP4FlrsBJ-28" value="player_ID" style="text;strokeColor=none;fillColor=none;spacingLeft=4;spacingRight=4;overflow=hidden;rotatable=0;points=[[0,0.5],[1,0.5]];portConstraint=eastwest;fontSize=12;" vertex="1" parent="jkipOq33ZPvJP4FlrsBJ-26">
          <mxGeometry y="56" width="160" height="30" as="geometry" />
        </mxCell>
        <mxCell id="jkipOq33ZPvJP4FlrsBJ-29" value="minutes_played" style="text;strokeColor=none;fillColor=none;spacingLeft=4;spacingRight=4;overflow=hidden;rotatable=0;points=[[0,0.5],[1,0.5]];portConstraint=eastwest;fontSize=12;" vertex="1" parent="jkipOq33ZPvJP4FlrsBJ-26">
          <mxGeometry y="86" width="160" height="30" as="geometry" />
        </mxCell>
        <mxCell id="jkipOq33ZPvJP4FlrsBJ-30" value="points_scored" style="text;strokeColor=none;fillColor=none;spacingLeft=4;spacingRight=4;overflow=hidden;rotatable=0;points=[[0,0.5],[1,0.5]];portConstraint=eastwest;fontSize=12;" vertex="1" parent="jkipOq33ZPvJP4FlrsBJ-26">
          <mxGeometry y="116" width="160" height="34" as="geometry" />
        </mxCell>
        <mxCell id="jkipOq33ZPvJP4FlrsBJ-31" value="field_goals" style="text;strokeColor=none;fillColor=none;spacingLeft=4;spacingRight=4;overflow=hidden;rotatable=0;points=[[0,0.5],[1,0.5]];portConstraint=eastwest;fontSize=12;" vertex="1" parent="jkipOq33ZPvJP4FlrsBJ-26">
          <mxGeometry y="150" width="160" height="30" as="geometry" />
        </mxCell>
        <mxCell id="jkipOq33ZPvJP4FlrsBJ-32" value="3pt_goals" style="text;strokeColor=none;fillColor=none;spacingLeft=4;spacingRight=4;overflow=hidden;rotatable=0;points=[[0,0.5],[1,0.5]];portConstraint=eastwest;fontSize=12;" vertex="1" parent="jkipOq33ZPvJP4FlrsBJ-26">
          <mxGeometry y="180" width="160" height="30" as="geometry" />
        </mxCell>
        <mxCell id="jkipOq33ZPvJP4FlrsBJ-33" value="free_throws" style="text;strokeColor=none;fillColor=none;spacingLeft=4;spacingRight=4;overflow=hidden;rotatable=0;points=[[0,0.5],[1,0.5]];portConstraint=eastwest;fontSize=12;" vertex="1" parent="jkipOq33ZPvJP4FlrsBJ-26">
          <mxGeometry y="210" width="160" height="30" as="geometry" />
        </mxCell>
        <mxCell id="5-Y15HctPKVcctrwR9Oy-3" value="" style="edgeStyle=entityRelationEdgeStyle;fontSize=12;html=1;endArrow=ERmandOne;startArrow=ERmandOne;rounded=0;entryX=-0.025;entryY=0.129;entryDx=0;entryDy=0;entryPerimeter=0;" edge="1" parent="SCCgKxzARnN3cMDTixyp-1" target="jkipOq33ZPvJP4FlrsBJ-0">
          <mxGeometry width="100" height="100" relative="1" as="geometry">
            <mxPoint x="-1440" y="326" as="sourcePoint" />
            <mxPoint x="-1290" y="242" as="targetPoint" />
          </mxGeometry>
        </mxCell>
        <mxCell id="5-Y15HctPKVcctrwR9Oy-4" value="" style="edgeStyle=entityRelationEdgeStyle;fontSize=12;html=1;endArrow=ERmandOne;startArrow=ERmandOne;rounded=0;entryX=0;entryY=0.133;entryDx=0;entryDy=0;entryPerimeter=0;exitX=1.019;exitY=0.133;exitDx=0;exitDy=0;exitPerimeter=0;" edge="1" parent="SCCgKxzARnN3cMDTixyp-1" source="jkipOq33ZPvJP4FlrsBJ-2" target="jkipOq33ZPvJP4FlrsBJ-10">
          <mxGeometry width="100" height="100" relative="1" as="geometry">
            <mxPoint x="-1160" y="276" as="sourcePoint" />
            <mxPoint x="-1060" y="176" as="targetPoint" />
          </mxGeometry>
        </mxCell>
        <mxCell id="5-Y15HctPKVcctrwR9Oy-5" value="" style="edgeStyle=entityRelationEdgeStyle;fontSize=12;html=1;endArrow=ERzeroToMany;startArrow=ERmandOne;rounded=0;entryX=-0.019;entryY=0.091;entryDx=0;entryDy=0;entryPerimeter=0;exitX=1.019;exitY=0.167;exitDx=0;exitDy=0;exitPerimeter=0;" edge="1" parent="SCCgKxzARnN3cMDTixyp-1" source="jkipOq33ZPvJP4FlrsBJ-10" target="jkipOq33ZPvJP4FlrsBJ-4">
          <mxGeometry width="100" height="100" relative="1" as="geometry">
            <mxPoint x="-910" y="126" as="sourcePoint" />
            <mxPoint x="-810" y="26" as="targetPoint" />
          </mxGeometry>
        </mxCell>
        <mxCell id="5-Y15HctPKVcctrwR9Oy-6" value="" style="edgeStyle=entityRelationEdgeStyle;fontSize=12;html=1;endArrow=ERmandOne;startArrow=ERmandOne;rounded=0;entryX=1.013;entryY=0.068;entryDx=0;entryDy=0;entryPerimeter=0;exitX=-0.025;exitY=0.164;exitDx=0;exitDy=0;exitPerimeter=0;" edge="1" parent="SCCgKxzARnN3cMDTixyp-1" source="jkipOq33ZPvJP4FlrsBJ-12" target="jkipOq33ZPvJP4FlrsBJ-4">
          <mxGeometry width="100" height="100" relative="1" as="geometry">
            <mxPoint x="-240" y="146" as="sourcePoint" />
            <mxPoint x="-400" y="76" as="targetPoint" />
          </mxGeometry>
        </mxCell>
        <mxCell id="5-Y15HctPKVcctrwR9Oy-8" value="" style="edgeStyle=entityRelationEdgeStyle;fontSize=12;html=1;endArrow=ERoneToMany;startArrow=ERmandOne;rounded=0;entryX=-0.019;entryY=0.048;entryDx=0;entryDy=0;entryPerimeter=0;exitX=1.031;exitY=0.067;exitDx=0;exitDy=0;exitPerimeter=0;" edge="1" parent="SCCgKxzARnN3cMDTixyp-1" source="5-Y15HctPKVcctrwR9Oy-1" target="jkipOq33ZPvJP4FlrsBJ-20">
          <mxGeometry width="100" height="100" relative="1" as="geometry">
            <mxPoint x="-1010" y="416" as="sourcePoint" />
            <mxPoint x="-890" y="336" as="targetPoint" />
          </mxGeometry>
        </mxCell>
        <mxCell id="5-Y15HctPKVcctrwR9Oy-9" value="" style="edgeStyle=entityRelationEdgeStyle;fontSize=12;html=1;endArrow=ERzeroToMany;startArrow=ERmandOne;rounded=0;entryX=-0.019;entryY=0.054;entryDx=0;entryDy=0;entryPerimeter=0;exitX=1.019;exitY=0.071;exitDx=0;exitDy=0;exitPerimeter=0;" edge="1" parent="SCCgKxzARnN3cMDTixyp-1" source="jkipOq33ZPvJP4FlrsBJ-20" target="jkipOq33ZPvJP4FlrsBJ-26">
          <mxGeometry width="100" height="100" relative="1" as="geometry">
            <mxPoint x="-500" y="306" as="sourcePoint" />
            <mxPoint x="-700" y="366" as="targetPoint" />
          </mxGeometry>
        </mxCell>
      </root>
    </mxGraphModel>
  </diagram>
</mxfile>
